<svg version="1.1" id="Layer_1" xmlns="http://www.w3.org/2000/svg" xmlns:xlink="http://www.w3.org/1999/xlink" x="0px" y="0px"
	 width="100%" viewBox="0 0 500 500" enable-background="new 0 0 500 500" xml:space="preserve">
<path fill="#000001" opacity="1.000000" stroke="none" 
	d="
M245.000000,501.000000 
	C163.333359,501.000000 82.166702,501.000000 1.000044,501.000000 
	C1.000029,334.333405 1.000029,167.666779 1.000015,1.000133 
	C167.666565,1.000089 334.333130,1.000089 500.999756,1.000044 
	C500.999847,167.666519 500.999847,334.333038 500.999939,500.999786 
	C415.833344,501.000000 330.666656,501.000000 245.000000,501.000000 
M94.001221,258.000000 
	C94.001221,258.000000 94.087402,257.934570 94.416397,257.323273 
	C93.930054,256.894501 93.443718,256.465729 92.998962,256.004456 
	C92.998962,256.004456 92.953308,256.027893 92.859528,255.274658 
	C91.620094,254.594467 90.403740,253.382248 89.137177,253.327301 
	C83.988243,253.103867 78.821609,253.156815 73.667366,253.307739 
	C72.727928,253.335251 71.815826,254.296646 70.308327,255.185028 
	C65.724823,258.545410 62.549759,262.724915 62.212074,268.664276 
	C62.020020,272.042206 60.326221,276.127380 61.673664,278.611023 
	C63.604279,282.169556 66.609100,286.151825 72.242638,285.185730 
	C75.151634,284.686890 78.216942,285.123138 81.211159,285.092377 
	C86.310707,285.039978 92.563545,280.701660 93.724670,275.758972 
	C94.843353,270.997009 95.234230,266.064117 96.202950,260.763367 
	C95.802628,260.164825 95.402313,259.566284 94.981430,259.007416 
	C94.981430,259.007416 95.024826,259.018250 95.197197,258.346710 
	C94.826706,258.209534 94.456223,258.072357 94.001221,258.000000 
M93.730858,317.988861 
	C93.679878,317.831207 93.592888,317.673615 93.592484,317.515839 
	C93.592262,317.431732 93.740250,317.274872 93.823730,317.273254 
	C97.298691,317.205109 100.778137,317.240143 104.248268,317.076691 
	C112.090401,316.707336 111.540283,316.482513 113.452545,308.844604 
	C114.717415,303.792572 111.654747,301.744690 109.037071,298.054504 
	C104.049248,297.777924 99.063393,297.405243 94.071999,297.303009 
	C93.030853,297.281708 91.969238,298.259827 90.324844,299.128326 
	C85.546646,302.102966 82.205437,305.996124 82.098663,311.966431 
	C82.031212,315.738434 80.927170,319.880188 82.123322,323.193512 
	C83.824074,327.904663 87.977249,329.926727 93.529182,329.225067 
	C98.587601,328.585815 103.783669,329.035614 109.703606,328.974579 
	C110.561684,325.903900 111.419754,322.833221 112.605621,318.589478 
	C105.804184,318.589478 99.926315,318.589478 93.730858,317.988861 
M340.707275,248.293243 
	C331.443573,234.709839 322.179871,221.126434 312.886932,207.500137 
	C322.140747,193.959091 331.252747,180.625549 340.995361,166.369278 
	C331.532654,166.369278 323.407257,166.158508 315.306610,166.513046 
	C313.202698,166.605148 310.476898,167.937042 309.226440,169.596115 
	C300.516479,181.152496 292.214325,193.015625 283.551178,204.608322 
	C281.571320,207.257706 281.735107,208.891403 283.661713,211.453812 
	C292.952545,223.810776 302.008728,236.344116 310.201935,248.954834 
	C299.760742,247.603409 290.396149,249.517380 283.574219,258.281708 
	C281.742584,260.634857 279.793854,263.349792 279.236603,266.163574 
	C276.813812,278.397339 275.600739,290.910461 272.543091,302.965729 
	C270.230469,312.083496 271.537720,319.208984 278.729340,325.039246 
	C280.579163,326.538940 283.108124,327.973328 285.373810,328.053040 
	C294.856964,328.386688 304.407349,327.594788 313.839844,328.361969 
	C323.319763,329.132935 330.822571,326.755493 337.378540,319.712128 
	C340.107300,316.780518 342.128723,314.151825 342.769196,310.154510 
	C344.663788,298.329956 346.213165,286.393188 349.113892,274.804749 
	C351.447113,265.483643 350.226624,258.026581 342.868561,251.733826 
	C342.007446,250.997360 341.459320,249.894867 340.707275,248.293243 
M384.880585,249.029831 
	C387.480713,249.029831 390.080841,249.029831 393.601990,249.029831 
	C383.833710,234.722168 374.583466,221.173309 365.248291,207.500015 
	C374.493317,193.992111 383.661377,180.596619 393.392731,166.378113 
	C384.163025,166.378113 375.890289,166.170624 367.641418,166.522629 
	C365.554413,166.611694 362.857574,167.967484 361.608032,169.622375 
	C352.880951,181.180283 344.552582,193.038666 335.872650,204.633209 
	C333.880920,207.293686 334.152802,208.987900 336.035797,211.485107 
	C345.356445,223.846039 354.485840,236.351166 362.929230,248.900848 
	C361.954010,250.327789 360.392761,251.643097 360.096252,253.199356 
	C357.700775,265.772278 355.526123,278.387543 353.317413,290.995758 
	C351.177338,303.212219 349.076782,315.435638 346.905487,327.963989 
	C354.497894,327.963989 361.595764,327.963989 369.084656,327.963989 
	C371.591156,313.921204 374.084869,299.949829 376.578613,285.978455 
	C378.126770,287.382629 378.767059,288.831177 379.336761,290.307007 
	C383.762878,301.773163 388.259613,313.213379 392.527893,324.738098 
	C393.493103,327.344238 394.742828,328.404846 397.562164,328.260651 
	C402.045441,328.031311 406.559723,328.011475 411.040466,328.264435 
	C414.119476,328.438232 415.424255,327.429779 415.953217,324.331329 
	C420.233551,299.259705 424.657379,274.212585 429.757202,249.025391 
	C430.485016,249.072174 431.212799,249.118958 431.884399,249.935730 
	C430.805573,256.070312 429.726746,262.204926 428.553101,268.878754 
	C435.824310,268.878754 442.263550,268.878754 449.336273,268.878754 
	C445.865814,288.792358 442.485535,308.188446 439.058044,327.855591 
	C447.080658,327.855591 454.798615,327.855591 462.610168,327.855591 
	C466.128693,307.996460 469.591064,288.454529 473.082916,268.746063 
	C480.416443,268.746063 487.042572,268.746063 493.903381,268.746063 
	C495.056885,262.158508 496.165131,255.829544 497.394928,248.806442 
	C479.880066,248.806442 462.934387,248.806442 445.793823,248.167572 
	C436.529510,234.613297 427.265198,221.059021 417.999664,207.502960 
	C427.315399,193.894974 436.468994,180.523788 446.150757,166.381088 
	C437.031647,166.381088 428.934723,166.536880 420.848938,166.304443 
	C417.613831,166.211441 415.699860,167.389557 413.880890,169.947052 
	C405.593384,181.599442 397.225464,193.198700 388.642273,204.633759 
	C386.625671,207.320419 386.914948,208.962296 388.802002,211.475967 
	C398.079193,223.833557 407.149200,236.346664 415.363159,248.948868 
	C412.588806,248.948868 409.814453,248.948868 406.854919,248.948868 
	C404.439850,262.367950 402.118347,275.267090 399.796844,288.166260 
	C399.474884,288.177704 399.152924,288.189178 398.830963,288.200653 
	C393.886566,275.185944 388.942169,262.171234 384.880585,249.029831 
M72.792976,329.074036 
	C73.603195,328.051270 74.861816,327.138977 75.145821,325.986542 
	C76.357277,321.070618 77.257164,316.078674 78.316742,311.124329 
	C79.137901,307.284760 79.317047,303.769318 76.203331,300.549469 
	C71.336166,295.516449 65.801262,298.816193 59.916172,298.525970 
	C60.311489,294.731384 60.729397,290.719910 61.168575,286.504303 
	C59.654011,286.120209 58.330688,285.784637 56.743298,285.382111 
	C57.343838,282.476898 57.877956,279.893066 58.414715,277.296448 
	C52.608433,276.709198 52.214344,276.111145 53.682560,270.898682 
	C54.058830,269.562866 54.114876,268.139893 54.379765,266.768890 
	C54.804619,264.569946 54.379105,262.160583 58.044060,261.690918 
	C59.086208,261.557373 59.595181,257.263092 60.348660,254.876862 
	C55.077995,253.443298 57.206661,249.677826 58.026230,246.235657 
	C54.902317,246.235657 52.116985,246.235657 49.880318,246.235657 
	C47.975708,248.979523 46.256351,251.317184 44.691605,253.754120 
	C43.402462,255.761887 40.772915,258.965729 41.354343,259.787109 
	C45.405128,265.509827 39.834145,270.661102 40.975132,276.021271 
	C41.299099,277.543213 41.252399,279.489502 42.186241,280.466431 
	C44.331493,282.710602 46.975407,284.478119 49.585392,286.574432 
	C47.258816,300.054108 44.820591,314.180664 42.318050,328.679871 
	C44.230633,328.857697 45.664032,329.408020 46.751183,329.010742 
	C49.565990,327.982178 53.818657,329.598389 54.914280,325.312531 
	C55.691952,322.270447 55.849117,319.063782 56.208248,315.922028 
	C56.738483,311.283386 58.473186,307.422516 63.023640,305.466003 
	C65.885963,304.235291 67.300339,305.558197 66.902138,308.409851 
	C66.366524,312.245514 65.553314,316.053192 64.661621,319.826202 
	C62.465740,329.117645 62.420353,329.106934 72.792976,329.074036 
M220.020447,165.453613 
	C215.569855,190.878754 211.119263,216.303879 206.620239,242.005676 
	C214.902863,242.005676 222.346466,242.005676 230.039780,242.005676 
	C231.089859,236.692459 232.113876,231.511154 233.405289,224.976822 
	C236.070953,230.680008 238.005920,235.065292 240.187256,239.324417 
	C240.776108,240.474136 242.090469,242.031525 243.108276,242.059174 
	C251.313477,242.282104 259.527405,242.184067 268.502319,242.184067 
	C262.399933,230.887497 256.758087,220.443497 251.084961,209.941605 
	C260.632019,201.712311 269.831940,193.782242 280.054199,184.970963 
	C272.889557,184.970963 267.248474,185.271347 261.651978,184.899902 
	C253.444672,184.355164 245.786621,184.921585 240.106934,191.915283 
	C240.011612,192.032654 239.554092,191.855835 239.037521,191.785049 
	C240.690903,182.323425 242.340515,172.883362 244.069260,162.990540 
	C236.573761,162.990540 229.443069,162.944489 222.315018,163.060410 
	C221.587219,163.072250 220.875244,164.055740 220.020447,165.453613 
M202.728729,285.038757 
	C200.204330,299.235657 197.679932,313.432556 195.121613,327.820251 
	C203.281189,327.820251 211.004074,327.820251 218.684784,327.820251 
	C220.223587,319.320740 221.695068,311.193024 223.202164,302.868683 
	C226.963470,302.868683 230.286972,303.011993 233.591751,302.824738 
	C236.385834,302.666412 237.707809,303.435547 238.196533,306.492676 
	C239.192902,312.725525 240.607849,318.902039 242.137939,325.029968 
	C242.442108,326.248047 243.998413,328.005707 245.038406,328.049103 
	C251.649338,328.324768 258.277405,328.189301 265.366089,328.189301 
	C263.344330,319.290833 261.621338,311.001801 259.513245,302.811890 
	C258.776703,299.950439 259.089813,298.022095 261.643890,296.493347 
	C267.316803,293.097870 270.357727,288.197113 270.492981,281.453827 
	C270.539001,279.158020 271.307495,276.878021 271.732697,274.588318 
	C274.231812,261.130829 274.257874,261.105011 264.826691,251.020676 
	C263.917084,250.048080 262.401154,249.075119 261.159576,249.065994 
	C243.851562,248.938889 226.542313,248.979874 208.992157,248.979874 
	C206.918701,260.917450 204.898331,272.549377 202.728729,285.038757 
M145.979752,248.979691 
	C145.013641,250.609436 143.499939,252.135590 143.168900,253.885452 
	C140.728317,266.786621 138.504852,279.729095 136.250504,292.665100 
	C134.213364,304.354553 132.223618,316.052246 130.184448,327.912262 
	C138.351822,327.912262 145.942444,327.912262 153.669373,327.912262 
	C155.427460,318.210297 157.139542,308.762207 158.922028,298.925568 
	C169.940903,298.925568 180.705704,298.925568 191.628067,298.925568 
	C192.717728,292.549561 193.736435,286.588654 194.861389,280.006104 
	C183.691299,280.006104 173.139069,280.006104 162.225861,280.006104 
	C162.922791,276.031677 163.516830,272.644104 164.178192,268.872589 
	C166.060364,268.872589 167.692688,268.872650 169.325012,268.872589 
	C178.813248,268.872284 188.304398,268.987213 197.786591,268.747803 
	C199.214615,268.711731 201.546234,267.255981 201.844269,266.055756 
	C203.197372,260.606537 203.971832,255.013611 205.042984,248.973404 
	C185.452530,248.973404 166.173386,248.973404 145.979752,248.979691 
M187.460373,242.226929 
	C191.446960,242.226929 195.433548,242.226929 199.744812,242.226929 
	C200.763336,236.328720 201.741013,230.667053 202.822556,224.403824 
	C200.620438,224.403824 198.989761,224.404037 197.359085,224.403778 
	C189.860260,224.402588 182.361359,224.421066 174.862686,224.387848 
	C172.636353,224.377975 170.162033,224.370499 170.711609,221.036087 
	C171.685623,215.126251 172.575256,209.185150 173.958389,203.366013 
	C174.931335,199.272675 178.635178,199.537231 181.748184,200.017838 
	C185.382614,200.578918 183.831589,203.478195 183.707397,205.622253 
	C183.643616,206.723648 183.446121,207.817291 183.302155,208.969818 
	C191.241547,208.969818 198.854843,208.969818 206.398514,208.969818 
	C209.543991,196.442520 209.423203,196.551971 201.829727,188.171738 
	C199.427200,185.520294 196.919464,184.807938 193.549088,184.895142 
	C185.722214,185.097641 177.876907,184.740692 170.059921,185.084549 
	C167.502411,185.197037 164.806793,186.422226 162.522400,187.741348 
	C153.533829,192.931854 148.700790,200.676498 148.701309,211.258438 
	C148.701385,213.061447 148.396408,214.971680 147.754639,216.649658 
	C144.308151,225.661102 146.453369,233.174347 153.779297,239.176910 
	C155.513779,240.598083 157.865311,242.012741 159.982208,242.090469 
	C168.802277,242.414352 177.641098,242.226776 187.460373,242.226929 
M70.819565,162.981064 
	C53.693684,162.981064 36.567799,162.981064 19.248566,162.981064 
	C14.596727,189.471588 10.013033,215.574051 5.339569,242.187729 
	C24.151966,242.187729 42.271832,242.208389 60.391308,242.134476 
	C61.437740,242.130219 62.601044,241.532608 63.507195,240.914062 
	C72.473145,234.794098 79.235657,227.295685 78.996513,215.541824 
	C78.993141,215.376465 78.994415,215.199448 79.046906,215.046158 
	C80.997253,209.349838 80.331459,204.338348 75.286949,200.431305 
	C75.115974,200.298874 75.213745,199.819458 75.186241,199.501801 
	C75.565781,199.636444 75.945320,199.771072 76.324860,199.905716 
	C77.772659,196.412445 79.512260,193.005966 80.584770,189.401031 
	C81.621597,185.916046 82.028816,182.235535 82.587822,178.621613 
	C82.756271,177.532562 82.951851,176.014572 82.377502,175.314835 
	C78.931458,171.116501 75.264557,167.099472 70.819565,162.981064 
M126.487915,242.195038 
	C129.960312,242.195038 133.432709,242.195038 137.305283,242.195038 
	C139.247635,231.118530 140.223907,220.081421 143.288300,209.658203 
	C146.188019,199.795029 142.802429,193.138519 136.114746,186.958298 
	C135.214737,186.126602 134.004654,185.082962 132.928879,185.072311 
	C119.821358,184.942673 106.712090,184.988098 93.361069,184.988098 
	C92.418816,190.522842 91.550339,195.624191 90.602234,201.193298 
	C99.353233,201.193298 107.317024,201.127960 115.278023,201.247513 
	C116.902122,201.271896 118.515785,201.990967 120.134262,202.389801 
	C120.023926,202.919220 119.913582,203.448639 119.803246,203.978058 
	C116.870758,203.978058 113.876724,204.364716 111.016701,203.909485 
	C100.065758,202.166382 91.286728,205.833725 84.151794,214.037537 
	C84.043678,214.161835 83.901039,214.255737 83.777153,214.366760 
	C81.654572,216.268921 78.360771,227.422379 79.866684,229.605591 
	C82.783440,233.834290 85.863869,238.139725 89.704086,241.454544 
	C91.391861,242.911407 95.113846,242.240356 97.899307,242.147720 
	C103.171188,241.972397 108.433769,241.517029 114.388496,241.133728 
	C114.554733,241.200653 115.762909,242.028809 117.027466,242.126404 
	C119.839287,242.343430 122.679337,242.194702 126.487915,242.195038 
M22.959133,303.440063 
	C25.401503,306.981567 24.016970,310.634308 23.435568,314.341675 
	C22.796265,318.418335 21.480284,322.058075 25.190428,326.322418 
	C29.060926,330.771057 33.102440,328.860931 36.891315,328.683075 
	C38.270504,328.618286 39.451168,324.324799 41.220570,321.034180 
	C35.393272,321.462646 33.889919,319.717072 35.633602,315.505646 
	C36.139408,314.283997 36.007626,312.751892 35.980541,311.365784 
	C35.924644,308.504913 36.174759,306.530029 39.904934,305.719849 
	C41.420418,305.390686 42.149471,301.440796 43.304306,298.994415 
	C41.315945,298.190094 40.006847,297.660522 38.751259,297.152618 
	C38.751259,294.672333 38.751259,292.468353 38.751259,289.839233 
	C36.024376,290.095764 32.645515,289.406250 31.411150,290.724609 
	C28.123943,294.235474 25.760122,298.610901 22.959133,303.440063 
z"/>
<path fill="#FBDB58" opacity="1.000000" stroke="none" 
	d="
M431.940613,249.165741 
	C431.212799,249.118958 430.485016,249.072174 428.939697,249.017670 
	C424.178955,248.941589 420.235657,248.873215 416.292389,248.804855 
	C407.149200,236.346664 398.079193,223.833557 388.802002,211.475967 
	C386.914948,208.962296 386.625671,207.320419 388.642273,204.633759 
	C397.225464,193.198700 405.593384,181.599442 413.880890,169.947052 
	C415.699860,167.389557 417.613831,166.211441 420.848938,166.304443 
	C428.934723,166.536880 437.031647,166.381088 446.150757,166.381088 
	C436.468994,180.523788 427.315399,193.894974 417.999664,207.502960 
	C427.265198,221.059021 436.529510,234.613297 445.431213,248.555420 
	C440.692596,249.017426 436.316589,249.091583 431.940613,249.165741 
z"/>
<path fill="#FC8F4C" opacity="1.000000" stroke="none" 
	d="
M363.682617,248.805466 
	C354.485840,236.351166 345.356445,223.846039 336.035797,211.485107 
	C334.152802,208.987900 333.880920,207.293686 335.872650,204.633209 
	C344.552582,193.038666 352.880951,181.180283 361.608032,169.622375 
	C362.857574,167.967484 365.554413,166.611694 367.641418,166.522629 
	C375.890289,166.170624 384.163025,166.378113 393.392731,166.378113 
	C383.661377,180.596619 374.493317,193.992111 365.248291,207.500015 
	C374.583466,221.173309 383.833710,234.722168 393.601990,249.029831 
	C390.080841,249.029831 387.480713,249.029831 383.976227,249.020813 
	C376.608795,248.943008 370.145691,248.874237 363.682617,248.805466 
z"/>
<path fill="#FB3030" opacity="1.000000" stroke="none" 
	d="
M311.148163,248.814880 
	C302.008728,236.344116 292.952545,223.810776 283.661713,211.453812 
	C281.735107,208.891403 281.571320,207.257706 283.551178,204.608322 
	C292.214325,193.015625 300.516479,181.152496 309.226440,169.596115 
	C310.476898,167.937042 313.202698,166.605148 315.306610,166.513046 
	C323.407257,166.158508 331.532654,166.369278 340.995361,166.369278 
	C331.252747,180.625549 322.140747,193.959091 312.886932,207.500137 
	C322.179871,221.126434 331.443573,234.709839 340.283447,248.634216 
	C330.289124,248.921753 320.718628,248.868317 311.148163,248.814880 
z"/>
<path fill="#F99053" opacity="1.000000" stroke="none" 
	d="
M72.372910,329.084717 
	C62.420353,329.106934 62.465740,329.117645 64.661621,319.826202 
	C65.553314,316.053192 66.366524,312.245514 66.902138,308.409851 
	C67.300339,305.558197 65.885963,304.235291 63.023640,305.466003 
	C58.473186,307.422516 56.738483,311.283386 56.208248,315.922028 
	C55.849117,319.063782 55.691952,322.270447 54.914280,325.312531 
	C53.818657,329.598389 49.565990,327.982178 46.751183,329.010742 
	C45.664032,329.408020 44.230633,328.857697 42.318050,328.679871 
	C44.820591,314.180664 47.258816,300.054108 49.585392,286.574432 
	C46.975407,284.478119 44.331493,282.710602 42.186241,280.466431 
	C41.252399,279.489502 41.299099,277.543213 40.975132,276.021271 
	C39.834145,270.661102 45.405128,265.509827 41.354343,259.787109 
	C40.772915,258.965729 43.402462,255.761887 44.691605,253.754120 
	C46.256351,251.317184 47.975708,248.979523 49.880318,246.235657 
	C52.116985,246.235657 54.902317,246.235657 58.026230,246.235657 
	C57.206661,249.677826 55.077995,253.443298 60.348663,254.876862 
	C59.595181,257.263092 59.086208,261.557373 58.044060,261.690918 
	C54.379105,262.160583 54.804619,264.569946 54.379765,266.768890 
	C54.114876,268.139893 54.058830,269.562866 53.682560,270.898682 
	C52.214344,276.111145 52.608433,276.709198 58.414715,277.296448 
	C57.877956,279.893066 57.343838,282.476898 56.743298,285.382111 
	C58.330688,285.784637 59.654011,286.120209 61.168575,286.504303 
	C60.729397,290.719910 60.311489,294.731384 59.916172,298.525970 
	C65.801262,298.816193 71.336166,295.516449 76.203331,300.549469 
	C79.317047,303.769318 79.137901,307.284760 78.316742,311.124329 
	C77.257164,316.078674 76.357277,321.070618 75.145821,325.986542 
	C74.861816,327.138977 73.603195,328.051270 72.372910,329.084717 
z"/>
<path fill="#5671EC" opacity="1.000000" stroke="none" 
	d="
M363.305908,248.853165 
	C370.145691,248.874237 376.608795,248.943008 383.534851,249.084167 
	C388.942169,262.171234 393.886566,275.185944 398.830963,288.200653 
	C399.152924,288.189178 399.474884,288.177704 399.796844,288.166260 
	C402.118347,275.267090 404.439850,262.367950 406.854919,248.948868 
	C409.814453,248.948868 412.588806,248.948868 415.827759,248.876862 
	C420.235657,248.873215 424.178955,248.941589 428.579834,249.083984 
	C424.657379,274.212585 420.233551,299.259705 415.953217,324.331329 
	C415.424255,327.429779 414.119476,328.438232 411.040466,328.264435 
	C406.559723,328.011475 402.045441,328.031311 397.562164,328.260651 
	C394.742828,328.404846 393.493103,327.344238 392.527893,324.738098 
	C388.259613,313.213379 383.762878,301.773163 379.336761,290.307007 
	C378.767059,288.831177 378.126770,287.382629 376.578613,285.978455 
	C374.084869,299.949829 371.591156,313.921204 369.084656,327.963989 
	C361.595764,327.963989 354.497894,327.963989 346.905487,327.963989 
	C349.076782,315.435638 351.177338,303.212219 353.317413,290.995758 
	C355.526123,278.387543 357.700775,265.772278 360.096252,253.199356 
	C360.392761,251.643097 361.954010,250.327789 363.305908,248.853165 
M350.000061,325.482086 
	C355.610840,325.482086 361.221588,325.482086 367.300507,325.482086 
	C369.527893,312.774353 371.733612,299.839050 374.130585,286.939270 
	C374.446655,285.238281 375.739502,283.718811 376.579987,282.115295 
	C377.765991,283.453979 379.438995,284.599030 380.060669,286.162140 
	C384.853668,298.213745 389.385010,310.369354 394.173828,322.422668 
	C394.730652,323.824219 396.295349,325.719574 397.509949,325.809784 
	C402.616882,326.189331 407.768341,325.970215 413.289093,325.970215 
	C417.680756,301.009460 422.015137,276.374146 426.449005,251.173325 
	C421.469696,251.173325 417.314026,251.403488 413.196930,251.103821 
	C409.610138,250.842773 408.388947,252.089584 407.815735,255.681519 
	C405.656494,269.211639 403.075012,282.674408 400.417938,297.463348 
	C399.269165,294.980133 398.601868,293.724915 398.093323,292.408356 
	C394.618256,283.411407 391.180725,274.399902 387.722961,265.396210 
	C381.997192,250.486664 381.994568,250.487732 366.092865,251.173935 
	C365.926544,251.181107 365.699921,251.106094 365.602234,251.188675 
	C364.410553,252.195984 362.400574,253.074203 362.183899,254.271912 
	C357.949280,277.680817 353.924103,301.127625 350.000061,325.482086 
z"/>
<path fill="#FB9051" opacity="1.000000" stroke="none" 
	d="
M109.296577,298.840942 
	C111.654747,301.744690 114.717415,303.792572 113.452545,308.844604 
	C111.540283,316.482513 112.090401,316.707336 104.248268,317.076691 
	C100.778137,317.240143 97.298691,317.205109 93.823730,317.273254 
	C93.740250,317.274872 93.592262,317.431732 93.592484,317.515839 
	C93.592888,317.673615 93.679878,317.831207 93.799675,318.717468 
	C99.117653,320.102966 104.366814,320.759796 110.184311,321.487762 
	C109.774513,323.922607 109.346786,326.463989 108.919067,329.005402 
	C103.783669,329.035614 98.587601,328.585815 93.529182,329.225067 
	C87.977249,329.926727 83.824074,327.904663 82.123322,323.193512 
	C80.927170,319.880188 82.031212,315.738434 82.098663,311.966431 
	C82.205437,305.996124 85.546646,302.102966 91.092934,298.978668 
	C97.672874,298.832977 103.484726,298.836975 109.296577,298.840942 
z"/>
<path fill="#566AED" opacity="1.000000" stroke="none" 
	d="
M220.088196,165.020981 
	C220.875244,164.055740 221.587219,163.072250 222.315018,163.060410 
	C229.443069,162.944489 236.573761,162.990540 244.069260,162.990540 
	C242.340515,172.883362 240.690903,182.323425 239.037521,191.785049 
	C239.554092,191.855835 240.011612,192.032654 240.106934,191.915283 
	C245.786621,184.921585 253.444672,184.355164 261.651978,184.899902 
	C267.248474,185.271347 272.889557,184.970963 280.054199,184.970963 
	C269.831940,193.782242 260.632019,201.712311 251.084961,209.941605 
	C256.758087,220.443497 262.399933,230.887497 268.502319,242.184067 
	C259.527405,242.184067 251.313477,242.282104 243.108276,242.059174 
	C242.090469,242.031525 240.776108,240.474136 240.187256,239.324417 
	C238.005920,235.065292 236.070953,230.680008 233.405289,224.976822 
	C232.113876,231.511154 231.089859,236.692459 230.039780,242.005676 
	C222.346466,242.005676 214.902863,242.005676 206.620239,242.005676 
	C211.119263,216.303879 215.569855,190.878754 220.088196,165.020981 
M265.806610,194.321518 
	C268.269806,192.183273 270.732971,190.045013 274.167480,187.063599 
	C265.484589,187.063599 258.076935,186.937241 250.680939,187.174088 
	C249.263214,187.219498 247.767166,188.539215 246.521988,189.538589 
	C243.135635,192.256470 239.864380,195.117752 235.583389,198.737366 
	C237.647217,186.773712 239.466110,176.229889 241.304703,165.571884 
	C234.496201,165.571884 228.439728,165.571884 222.304230,165.571884 
	C217.916473,190.468292 213.593033,214.999817 209.226532,239.775696 
	C215.639771,239.775696 221.753403,239.775696 227.799866,239.775696 
	C230.852539,234.163727 228.141174,226.645172 234.269028,221.510162 
	C236.834442,226.965820 239.046310,231.927658 241.519379,236.755692 
	C242.174911,238.035477 243.593903,239.765427 244.730530,239.818130 
	C251.115891,240.114288 257.522095,239.960922 264.850861,239.960922 
	C259.637360,230.390915 254.991470,221.633850 250.098450,213.017120 
	C248.582260,210.347031 248.760162,208.748901 251.244308,206.791107 
	C256.074402,202.984451 260.616302,198.812119 265.806610,194.321518 
z"/>
<path fill="#5570ED" opacity="1.000000" stroke="none" 
	d="
M202.803345,284.610046 
	C204.898331,272.549377 206.918701,260.917450 208.992157,248.979874 
	C226.542313,248.979874 243.851562,248.938889 261.159576,249.065994 
	C262.401154,249.075119 263.917084,250.048080 264.826691,251.020676 
	C274.257874,261.105011 274.231812,261.130829 271.732697,274.588318 
	C271.307495,276.878021 270.539001,279.158020 270.492981,281.453827 
	C270.357727,288.197113 267.316803,293.097870 261.643890,296.493347 
	C259.089813,298.022095 258.776703,299.950439 259.513245,302.811890 
	C261.621338,311.001801 263.344330,319.290833 265.366089,328.189301 
	C258.277405,328.189301 251.649338,328.324768 245.038406,328.049103 
	C243.998413,328.005707 242.442108,326.248047 242.137939,325.029968 
	C240.607849,318.902039 239.192902,312.725525 238.196533,306.492676 
	C237.707809,303.435547 236.385834,302.666412 233.591751,302.824738 
	C230.286972,303.011993 226.963470,302.868683 223.202164,302.868683 
	C221.695068,311.193024 220.223587,319.320740 218.684784,327.820251 
	C211.004074,327.820251 203.281189,327.820251 195.121613,327.820251 
	C197.679932,313.432556 200.204330,299.235657 202.803345,284.610046 
M262.244415,251.649139 
	C245.318192,251.649139 228.391968,251.649139 210.808472,251.649139 
	C206.493256,276.115692 202.133698,300.833710 197.751648,325.679199 
	C204.595688,325.679199 210.681656,325.679199 216.801422,325.679199 
	C218.321594,317.230133 219.789841,309.069733 221.331802,300.499603 
	C226.184738,300.499603 230.830734,300.661407 235.458572,300.441284 
	C238.417877,300.300537 239.514740,301.479736 240.034164,304.277924 
	C241.361115,311.426422 242.982178,318.520325 244.497635,325.693024 
	C250.592545,325.693024 256.314697,325.693024 262.565582,325.693024 
	C260.715454,317.719482 259.058594,310.107391 257.144928,302.560425 
	C256.363434,299.478363 256.580109,297.159943 259.548401,295.368317 
	C265.163025,291.979401 268.289551,287.054565 268.412231,280.337830 
	C268.442261,278.695404 268.676392,276.960236 269.263275,275.440125 
	C272.885620,266.057831 270.430054,258.419891 262.244415,251.649139 
z"/>
<path fill="#FA9052" opacity="1.000000" stroke="none" 
	d="
M95.944870,261.206299 
	C95.234230,266.064117 94.843353,270.997009 93.724670,275.758972 
	C92.563545,280.701660 86.310707,285.039978 81.211159,285.092377 
	C78.216942,285.123138 75.151634,284.686890 72.242638,285.185730 
	C66.609100,286.151825 63.604279,282.169556 61.673664,278.611023 
	C60.326221,276.127380 62.020020,272.042206 62.212074,268.664276 
	C62.549759,262.724915 65.724823,258.545410 71.074013,255.025848 
	C78.877571,255.253738 85.915436,255.640808 92.953308,256.027893 
	C92.953308,256.027893 92.998962,256.004456 92.820366,256.331757 
	C93.123650,257.084229 93.605530,257.509399 94.087402,257.934570 
	C94.087402,257.934570 94.001221,258.000000 94.028564,258.262634 
	C94.378876,258.689606 94.701851,258.853912 95.024826,259.018250 
	C95.024826,259.018250 94.981430,259.007416 94.954803,259.303101 
	C95.267075,260.134613 95.605972,260.670471 95.944870,261.206299 
M73.913239,271.409576 
	C74.123070,273.806030 71.813560,277.375427 76.249924,277.906433 
	C79.780640,278.329102 82.075027,276.704315 82.127388,272.571869 
	C82.155312,270.368805 83.455002,268.171661 83.427162,265.981384 
	C83.405968,264.314575 82.537079,261.571747 81.446007,261.231934 
	C79.186630,260.528229 76.201340,260.350159 75.537979,264.095947 
	C75.149315,266.290619 74.483238,268.436127 73.913239,271.409576 
z"/>
<path fill="#526EED" opacity="1.000000" stroke="none" 
	d="
M146.436996,248.976547 
	C166.173386,248.973404 185.452530,248.973404 205.042984,248.973404 
	C203.971832,255.013611 203.197372,260.606537 201.844269,266.055756 
	C201.546234,267.255981 199.214615,268.711731 197.786591,268.747803 
	C188.304398,268.987213 178.813248,268.872284 169.325012,268.872589 
	C167.692688,268.872650 166.060364,268.872589 164.178192,268.872589 
	C163.516830,272.644104 162.922791,276.031677 162.225861,280.006104 
	C173.139069,280.006104 183.691299,280.006104 194.861389,280.006104 
	C193.736435,286.588654 192.717728,292.549561 191.628067,298.925568 
	C180.705704,298.925568 169.940903,298.925568 158.922028,298.925568 
	C157.139542,308.762207 155.427460,318.210297 153.669373,327.912262 
	C145.942444,327.912262 138.351822,327.912262 130.184448,327.912262 
	C132.223618,316.052246 134.213364,304.354553 136.250504,292.665100 
	C138.504852,279.729095 140.728317,266.786621 143.168900,253.885452 
	C143.499939,252.135590 145.013641,250.609436 146.436996,248.976547 
M155.160522,306.736908 
	C155.813324,303.524963 156.466125,300.313019 157.180801,296.796631 
	C168.156357,296.796631 178.778015,296.796631 189.705521,296.796631 
	C190.555801,291.966858 191.347290,287.470978 192.249634,282.345520 
	C181.144119,282.345520 170.713196,282.345520 159.638763,282.345520 
	C160.556656,276.892700 161.369690,272.062805 162.290817,266.590759 
	C174.894012,266.590759 187.276443,266.590759 199.697617,266.590759 
	C200.627625,261.209564 201.442093,256.496857 202.317978,251.428802 
	C183.313156,251.428802 164.867661,251.428802 145.837433,251.428802 
	C141.486191,276.057556 137.125488,300.739868 132.707794,325.744751 
	C139.269470,325.744751 145.376205,325.744751 151.818802,325.744751 
	C152.902740,319.644958 153.973694,313.618378 155.160522,306.736908 
z"/>
<path fill="#5667E6" opacity="1.000000" stroke="none" 
	d="
M186.966705,242.226852 
	C177.641098,242.226776 168.802277,242.414352 159.982208,242.090469 
	C157.865311,242.012741 155.513779,240.598083 153.779297,239.176910 
	C146.453369,233.174347 144.308151,225.661102 147.754639,216.649658 
	C148.396408,214.971680 148.701385,213.061447 148.701309,211.258438 
	C148.700790,200.676498 153.533829,192.931854 162.522400,187.741348 
	C164.806793,186.422226 167.502411,185.197037 170.059921,185.084549 
	C177.876907,184.740692 185.722214,185.097641 193.549088,184.895142 
	C196.919464,184.807938 199.427200,185.520294 201.829727,188.171738 
	C209.423203,196.551971 209.543991,196.442520 206.398514,208.969818 
	C198.854843,208.969818 191.241547,208.969818 183.302155,208.969818 
	C183.446121,207.817291 183.643616,206.723648 183.707397,205.622253 
	C183.831589,203.478195 185.382614,200.578918 181.748184,200.017838 
	C178.635178,199.537231 174.931335,199.272675 173.958389,203.366013 
	C172.575256,209.185150 171.685623,215.126251 170.711609,221.036087 
	C170.162033,224.370499 172.636353,224.377975 174.862686,224.387848 
	C182.361359,224.421066 189.860260,224.402588 197.359085,224.403778 
	C198.989761,224.404037 200.620438,224.403824 202.822556,224.403824 
	C201.741013,230.667053 200.763336,236.328720 199.744812,242.226929 
	C195.433548,242.226929 191.446960,242.226929 186.966705,242.226852 
M199.100128,232.582779 
	C199.406967,230.835648 199.713806,229.088516 200.126053,226.741226 
	C197.974014,226.741226 196.349594,226.741470 194.725174,226.741211 
	C187.736984,226.740143 180.748672,226.712006 173.760681,226.749298 
	C170.357056,226.767456 167.915085,224.951447 168.273254,221.802124 
	C169.022202,215.216934 170.253632,208.640442 171.906357,202.219849 
	C173.076385,197.674438 181.289185,195.252853 184.354813,198.587555 
	C186.058960,200.441284 186.162247,203.766708 187.095001,206.777313 
	C192.373367,206.777313 198.470184,206.777313 204.630203,206.777313 
	C204.977036,205.274719 205.300079,204.004532 205.561386,202.721786 
	C207.169342,194.828354 200.702393,187.059891 192.527679,187.056396 
	C185.040344,187.053192 177.552643,187.018707 170.065964,187.088150 
	C168.629364,187.101486 166.789215,187.046463 165.827988,187.850830 
	C159.378220,193.248077 151.355820,197.335068 151.425385,207.813019 
	C151.461227,213.212067 150.042099,218.693939 148.731415,224.002869 
	C147.866882,227.504776 149.086411,229.710358 150.880997,232.562485 
	C154.817429,238.818649 159.959534,241.165024 167.112015,240.022552 
	C169.383453,239.659729 171.761734,239.965851 174.091125,239.965851 
	C182.008209,239.965851 189.925293,239.965836 197.786987,239.965836 
	C198.270523,237.365524 198.634949,235.405777 199.100128,232.582779 
z"/>
<path fill="#556BEF" opacity="1.000000" stroke="none" 
	d="
M71.245613,163.001373 
	C75.264557,167.099472 78.931458,171.116501 82.377502,175.314835 
	C82.951851,176.014572 82.756271,177.532562 82.587822,178.621613 
	C82.028816,182.235535 81.621597,185.916046 80.584770,189.401031 
	C79.512260,193.005966 77.772659,196.412445 76.324860,199.905716 
	C75.945320,199.771072 75.565781,199.636444 75.186241,199.501801 
	C75.213745,199.819458 75.115974,200.298874 75.286949,200.431305 
	C80.331459,204.338348 80.997253,209.349838 79.046906,215.046158 
	C78.994415,215.199448 78.993141,215.376465 78.996513,215.541824 
	C79.235657,227.295685 72.473145,234.794098 63.507195,240.914062 
	C62.601044,241.532608 61.437740,242.130219 60.391308,242.134476 
	C42.271832,242.208389 24.151966,242.187729 5.339569,242.187729 
	C10.013033,215.574051 14.596727,189.471588 19.248566,162.981064 
	C36.567799,162.981064 53.693684,162.981064 71.245613,163.001373 
M78.127350,190.435104 
	C81.005325,181.713837 81.280975,173.548691 73.033455,167.298996 
	C71.914886,166.451401 70.590500,165.285156 69.352760,165.274551 
	C53.397755,165.137756 37.441181,165.184082 21.149397,165.184082 
	C16.732239,190.192978 12.375122,214.861923 7.940499,239.969696 
	C25.429358,239.969696 42.554394,239.985382 59.679169,239.925613 
	C60.581745,239.922455 61.633598,239.473328 62.359978,238.904785 
	C69.405479,233.390167 76.228920,228.223862 76.611679,217.617264 
	C76.849152,211.036743 78.715096,204.910126 72.263550,200.336319 
	C72.081123,200.206970 72.140991,199.735855 72.255157,200.405991 
	C74.443367,196.929077 76.231514,194.087830 78.127350,190.435104 
z"/>
<path fill="#536FED" opacity="1.000000" stroke="none" 
	d="
M431.912506,249.550720 
	C436.316589,249.091583 440.692596,249.017426 445.528625,248.874847 
	C462.934387,248.806442 479.880066,248.806442 497.394928,248.806442 
	C496.165131,255.829544 495.056885,262.158508 493.903381,268.746063 
	C487.042572,268.746063 480.416443,268.746063 473.082916,268.746063 
	C469.591064,288.454529 466.128693,307.996460 462.610168,327.855591 
	C454.798615,327.855591 447.080658,327.855591 439.058044,327.855591 
	C442.485535,308.188446 445.865814,288.792358 449.336273,268.878754 
	C442.263550,268.878754 435.824310,268.878754 428.553101,268.878754 
	C429.726746,262.204926 430.805573,256.070312 431.912506,249.550720 
M450.906189,266.905304 
	C451.108948,267.761658 451.597778,268.664032 451.468689,269.467041 
	C450.545258,275.210815 449.491425,280.933563 448.487701,286.664490 
	C446.225220,299.582794 443.967743,312.502014 441.673706,325.618103 
	C448.319305,325.618103 454.532562,325.618103 460.757416,325.618103 
	C464.260254,305.837555 467.699646,286.415344 471.186188,266.726959 
	C478.280487,266.726959 484.902954,266.726959 492.002869,266.726959 
	C492.919373,261.511200 493.787628,256.570099 494.696808,251.395889 
	C474.076385,251.395889 454.162231,251.395889 433.882568,251.395889 
	C432.992706,256.411377 432.132294,261.260956 431.154846,266.770233 
	C437.782196,266.770233 443.897644,266.770233 450.906189,266.905304 
z"/>
<path fill="#5571EF" opacity="1.000000" stroke="none" 
	d="
M310.675049,248.884857 
	C320.718628,248.868317 330.289124,248.921753 340.312836,248.968613 
	C341.459320,249.894867 342.007446,250.997360 342.868561,251.733826 
	C350.226624,258.026581 351.447113,265.483643 349.113892,274.804749 
	C346.213165,286.393188 344.663788,298.329956 342.769196,310.154510 
	C342.128723,314.151825 340.107300,316.780518 337.378540,319.712128 
	C330.822571,326.755493 323.319763,329.132935 313.839844,328.361969 
	C304.407349,327.594788 294.856964,328.386688 285.373810,328.053040 
	C283.108124,327.973328 280.579163,326.538940 278.729340,325.039246 
	C271.537720,319.208984 270.230469,312.083496 272.543091,302.965729 
	C275.600739,290.910461 276.813812,278.397339 279.236603,266.163574 
	C279.793854,263.349792 281.742584,260.634857 283.574219,258.281708 
	C290.396149,249.517380 299.760742,247.603409 310.675049,248.884857 
M341.872925,302.272095 
	C343.589111,292.277771 344.690857,282.124695 347.219696,272.340393 
	C349.174011,264.778870 347.697876,259.037109 341.923431,254.325119 
	C340.077759,252.819046 337.538849,251.381668 335.271667,251.307770 
	C325.294159,250.982559 315.269165,251.647202 305.322266,251.007126 
	C298.082611,250.541260 292.742554,252.828568 287.523346,257.620392 
	C283.771149,261.065338 281.438599,264.418365 280.728760,269.613953 
	C279.132050,281.301056 277.481750,293.063232 274.541168,304.456207 
	C272.474518,312.463165 274.205475,318.322754 280.079712,323.369385 
	C281.548035,324.630859 283.655853,325.840332 285.490326,325.871674 
	C298.138214,326.087799 310.791779,326.018982 323.442841,325.937408 
	C324.839813,325.928406 326.515289,325.637085 327.581543,324.836975 
	C334.758240,319.451141 342.102173,314.087982 341.619843,303.606873 
	C341.612488,303.446960 341.690460,303.283081 341.872925,302.272095 
z"/>
<path fill="#556BF1" opacity="1.000000" stroke="none" 
	d="
M125.997894,242.195053 
	C122.679337,242.194702 119.839287,242.343430 117.027466,242.126404 
	C115.762909,242.028809 114.554733,241.200653 114.388496,241.133728 
	C108.433769,241.517029 103.171188,241.972397 97.899307,242.147720 
	C95.113846,242.240356 91.391861,242.911407 89.704086,241.454544 
	C85.863869,238.139725 82.783440,233.834290 79.866684,229.605591 
	C78.360771,227.422379 81.654572,216.268921 83.777153,214.366760 
	C83.901039,214.255737 84.043678,214.161835 84.151794,214.037537 
	C91.286728,205.833725 100.065758,202.166382 111.016701,203.909485 
	C113.876724,204.364716 116.870758,203.978058 119.803246,203.978058 
	C119.913582,203.448639 120.023926,202.919220 120.134262,202.389801 
	C118.515785,201.990967 116.902122,201.271896 115.278023,201.247513 
	C107.317024,201.127960 99.353233,201.193298 90.602234,201.193298 
	C91.550339,195.624191 92.418816,190.522842 93.361069,184.988098 
	C106.712090,184.988098 119.821358,184.942673 132.928879,185.072311 
	C134.004654,185.082962 135.214737,186.126602 136.114746,186.958298 
	C142.802429,193.138519 146.188019,199.795029 143.288300,209.658203 
	C140.223907,220.081421 139.247635,231.118530 137.305283,242.195038 
	C133.432709,242.195038 129.960312,242.195038 125.997894,242.195053 
M92.524117,209.928665 
	C89.365616,213.397827 85.382607,216.424545 83.231018,220.434021 
	C79.477989,227.427795 84.116676,232.674545 88.809319,237.292984 
	C90.164505,238.626755 92.356636,239.853134 94.165779,239.854156 
	C102.042496,239.858582 110.658699,242.357635 116.821777,232.618805 
	C116.821777,236.119904 116.821777,237.861816 116.821777,239.697784 
	C123.050117,239.697784 129.143234,239.697784 135.519882,239.697784 
	C137.836365,226.381500 140.113480,213.291458 142.390610,200.201431 
	C138.985214,195.823181 135.579803,191.444916 132.174408,187.066666 
	C119.883804,187.066666 107.593201,187.066666 95.276321,187.066666 
	C94.532410,191.274063 93.882607,194.949219 93.195572,198.834946 
	C94.525558,198.902145 95.348145,198.978531 96.170853,198.979797 
	C103.337135,198.990921 110.524071,198.694916 117.655319,199.195618 
	C119.450264,199.321625 122.163895,201.760483 122.529266,203.533401 
	C123.216209,206.866638 119.983818,206.108658 117.985680,206.134460 
	C112.653511,206.203339 107.283058,205.783234 102.000946,206.302048 
	C98.949852,206.601700 96.040352,208.342987 92.524117,209.928665 
z"/>
<path fill="#F99053" opacity="1.000000" stroke="none" 
	d="
M22.994148,303.041321 
	C25.760122,298.610901 28.123943,294.235474 31.411150,290.724609 
	C32.645515,289.406250 36.024376,290.095764 38.751259,289.839233 
	C38.751259,292.468353 38.751259,294.672333 38.751259,297.152618 
	C40.006847,297.660522 41.315945,298.190094 43.304306,298.994415 
	C42.149471,301.440796 41.420418,305.390686 39.904934,305.719849 
	C36.174759,306.530029 35.924644,308.504913 35.980541,311.365784 
	C36.007626,312.751892 36.139408,314.283997 35.633602,315.505646 
	C33.889919,319.717072 35.393272,321.462646 41.220570,321.034180 
	C39.451168,324.324799 38.270504,328.618286 36.891315,328.683075 
	C33.102440,328.860931 29.060926,330.771057 25.190428,326.322418 
	C21.480284,322.058075 22.796265,318.418335 23.435568,314.341675 
	C24.016970,310.634308 25.401503,306.981567 22.994148,303.041321 
z"/>
<path fill="#5D5CC9" opacity="1.000000" stroke="none" 
	d="
M109.311340,328.989990 
	C109.346786,326.463989 109.774513,323.922607 110.184311,321.487762 
	C104.366814,320.759796 99.117653,320.102966 93.958466,319.017792 
	C99.926315,318.589478 105.804184,318.589478 112.605621,318.589478 
	C111.419754,322.833221 110.561684,325.903900 109.311340,328.989990 
z"/>
<path fill="#5D5CA4" opacity="1.000000" stroke="none" 
	d="
M92.906418,255.651276 
	C85.915436,255.640808 78.877571,255.253738 71.365402,254.846802 
	C71.815826,254.296646 72.727928,253.335251 73.667366,253.307739 
	C78.821609,253.156815 83.988243,253.103867 89.137177,253.327301 
	C90.403740,253.382248 91.620094,254.594467 92.906418,255.651276 
z"/>
<path fill="#5D5CA4" opacity="1.000000" stroke="none" 
	d="
M109.166824,298.447754 
	C103.484726,298.836975 97.672874,298.832977 91.389038,298.803162 
	C91.969238,298.259827 93.030853,297.281708 94.071999,297.303009 
	C99.063393,297.405243 104.049248,297.777924 109.166824,298.447754 
z"/>
<path fill="#5D5CA4" opacity="1.000000" stroke="none" 
	d="
M96.073914,260.984833 
	C95.605972,260.670471 95.267075,260.134613 94.965088,259.283264 
	C95.402313,259.566284 95.802628,260.164825 96.073914,260.984833 
z"/>
<path fill="#5D5CA4" opacity="1.000000" stroke="none" 
	d="
M94.251907,257.628906 
	C93.605530,257.509399 93.123650,257.084229 92.799576,256.348022 
	C93.443718,256.465729 93.930054,256.894501 94.251907,257.628906 
z"/>
<path fill="#5D5CA4" opacity="1.000000" stroke="none" 
	d="
M95.111008,258.682495 
	C94.701851,258.853912 94.378876,258.689606 94.070816,258.230225 
	C94.456223,258.072357 94.826706,258.209534 95.111008,258.682495 
z"/>
<path fill="#FCDC5B" opacity="1.000000" stroke="none" 
	d="
M349.928101,325.024384 
	C353.924103,301.127625 357.949280,277.680817 362.183899,254.271912 
	C362.400574,253.074203 364.410553,252.195984 365.602234,251.188675 
	C365.699921,251.106094 365.926544,251.181107 366.092865,251.173935 
	C381.994568,250.487732 381.997192,250.486664 387.722961,265.396210 
	C391.180725,274.399902 394.618256,283.411407 398.093323,292.408356 
	C398.601868,293.724915 399.269165,294.980133 400.417938,297.463348 
	C403.075012,282.674408 405.656494,269.211639 407.815735,255.681519 
	C408.388947,252.089584 409.610138,250.842773 413.196930,251.103821 
	C417.314026,251.403488 421.469696,251.173325 426.449005,251.173325 
	C422.015137,276.374146 417.680756,301.009460 413.289093,325.970215 
	C407.768341,325.970215 402.616882,326.189331 397.509949,325.809784 
	C396.295349,325.719574 394.730652,323.824219 394.173828,322.422668 
	C389.385010,310.369354 384.853668,298.213745 380.060669,286.162140 
	C379.438995,284.599030 377.765991,283.453979 376.579987,282.115295 
	C375.739502,283.718811 374.446655,285.238281 374.130585,286.939270 
	C371.733612,299.839050 369.527893,312.774353 367.300507,325.482086 
	C361.221588,325.482086 355.610840,325.482086 349.928101,325.024384 
z"/>
<path fill="#FD3234" opacity="1.000000" stroke="none" 
	d="
M265.542114,194.556396 
	C260.616302,198.812119 256.074402,202.984451 251.244308,206.791107 
	C248.760162,208.748901 248.582260,210.347031 250.098450,213.017120 
	C254.991470,221.633850 259.637360,230.390915 264.850861,239.960922 
	C257.522095,239.960922 251.115891,240.114288 244.730530,239.818130 
	C243.593903,239.765427 242.174911,238.035477 241.519379,236.755692 
	C239.046310,231.927658 236.834442,226.965820 234.269028,221.510162 
	C228.141174,226.645172 230.852539,234.163727 227.799866,239.775696 
	C221.753403,239.775696 215.639771,239.775696 209.226532,239.775696 
	C213.593033,214.999817 217.916473,190.468292 222.304230,165.571884 
	C228.439728,165.571884 234.496201,165.571884 241.304703,165.571884 
	C239.466110,176.229889 237.647217,186.773712 235.583389,198.737366 
	C239.864380,195.117752 243.135635,192.256470 246.521988,189.538589 
	C247.767166,188.539215 249.263214,187.219498 250.680939,187.174088 
	C258.076935,186.937241 265.484589,187.063599 274.167480,187.063599 
	C270.732971,190.045013 268.269806,192.183273 265.542114,194.556396 
z"/>
<path fill="#FCDC5C" opacity="1.000000" stroke="none" 
	d="
M262.553894,251.899567 
	C270.430054,258.419891 272.885620,266.057831 269.263275,275.440125 
	C268.676392,276.960236 268.442261,278.695404 268.412231,280.337830 
	C268.289551,287.054565 265.163025,291.979401 259.548401,295.368317 
	C256.580109,297.159943 256.363434,299.478363 257.144928,302.560425 
	C259.058594,310.107391 260.715454,317.719482 262.565582,325.693024 
	C256.314697,325.693024 250.592545,325.693024 244.497635,325.693024 
	C242.982178,318.520325 241.361115,311.426422 240.034164,304.277924 
	C239.514740,301.479736 238.417877,300.300537 235.458572,300.441284 
	C230.830734,300.661407 226.184738,300.499603 221.331802,300.499603 
	C219.789841,309.069733 218.321594,317.230133 216.801422,325.679199 
	C210.681656,325.679199 204.595688,325.679199 197.751648,325.679199 
	C202.133698,300.833710 206.493256,276.115692 210.808472,251.649139 
	C228.391968,251.649139 245.318192,251.649139 262.553894,251.899567 
M231.709976,265.715973 
	C230.154755,266.462799 227.491913,266.936279 227.228882,268.002014 
	C225.808624,273.756866 224.983185,279.658508 223.858276,286.045288 
	C230.838806,286.045288 237.486786,286.479858 244.016907,285.793335 
	C246.107895,285.573547 248.562485,282.710480 249.631592,280.474030 
	C250.865295,277.893250 250.739609,274.666229 251.224991,271.723236 
	C251.890244,267.689728 250.017303,265.787354 246.104752,265.733582 
	C241.625946,265.671997 237.145645,265.716858 231.709976,265.715973 
z"/>
<path fill="#030409" opacity="1.000000" stroke="none" 
	d="
M73.927589,271.006653 
	C74.483238,268.436127 75.149315,266.290619 75.537979,264.095947 
	C76.201340,260.350159 79.186630,260.528229 81.446007,261.231934 
	C82.537079,261.571747 83.405968,264.314575 83.427162,265.981384 
	C83.455002,268.171661 82.155312,270.368805 82.127388,272.571869 
	C82.075027,276.704315 79.780640,278.329102 76.249924,277.906433 
	C71.813560,277.375427 74.123070,273.806030 73.927589,271.006653 
z"/>
<path fill="#FADB5D" opacity="1.000000" stroke="none" 
	d="
M155.102570,307.164337 
	C153.973694,313.618378 152.902740,319.644958 151.818802,325.744751 
	C145.376205,325.744751 139.269470,325.744751 132.707794,325.744751 
	C137.125488,300.739868 141.486191,276.057556 145.837433,251.428802 
	C164.867661,251.428802 183.313156,251.428802 202.317978,251.428802 
	C201.442093,256.496857 200.627625,261.209564 199.697617,266.590759 
	C187.276443,266.590759 174.894012,266.590759 162.290817,266.590759 
	C161.369690,272.062805 160.556656,276.892700 159.638763,282.345520 
	C170.713196,282.345520 181.144119,282.345520 192.249634,282.345520 
	C191.347290,287.470978 190.555801,291.966858 189.705521,296.796631 
	C178.778015,296.796631 168.156357,296.796631 157.180801,296.796631 
	C156.466125,300.313019 155.813324,303.524963 155.102570,307.164337 
z"/>
<path fill="#FD3233" opacity="1.000000" stroke="none" 
	d="
M199.049744,233.014404 
	C198.634949,235.405777 198.270523,237.365524 197.786987,239.965836 
	C189.925293,239.965836 182.008209,239.965851 174.091125,239.965851 
	C171.761734,239.965851 169.383453,239.659729 167.112015,240.022552 
	C159.959534,241.165024 154.817429,238.818649 150.880997,232.562485 
	C149.086411,229.710358 147.866882,227.504776 148.731415,224.002869 
	C150.042099,218.693939 151.461227,213.212067 151.425385,207.813019 
	C151.355820,197.335068 159.378220,193.248077 165.827988,187.850830 
	C166.789215,187.046463 168.629364,187.101486 170.065964,187.088150 
	C177.552643,187.018707 185.040344,187.053192 192.527679,187.056396 
	C200.702393,187.059891 207.169342,194.828354 205.561386,202.721786 
	C205.300079,204.004532 204.977036,205.274719 204.630203,206.777313 
	C198.470184,206.777313 192.373367,206.777313 187.095001,206.777313 
	C186.162247,203.766708 186.058960,200.441284 184.354813,198.587555 
	C181.289185,195.252853 173.076385,197.674438 171.906357,202.219849 
	C170.253632,208.640442 169.022202,215.216934 168.273254,221.802124 
	C167.915085,224.951447 170.357056,226.767456 173.760681,226.749298 
	C180.748672,226.712006 187.736984,226.740143 194.725174,226.741211 
	C196.349594,226.741470 197.974014,226.741226 200.126053,226.741226 
	C199.713806,229.088516 199.406967,230.835648 199.049744,233.014404 
z"/>
<path fill="#FD3234" opacity="1.000000" stroke="none" 
	d="
M78.073502,190.840851 
	C76.231514,194.087830 74.443367,196.929077 72.255157,200.405991 
	C72.140991,199.735855 72.081123,200.206970 72.263550,200.336319 
	C78.715096,204.910126 76.849152,211.036743 76.611679,217.617264 
	C76.228920,228.223862 69.405479,233.390167 62.359978,238.904785 
	C61.633598,239.473328 60.581745,239.922455 59.679169,239.925613 
	C42.554394,239.985382 25.429358,239.969696 7.940499,239.969696 
	C12.375122,214.861923 16.732239,190.192978 21.149397,165.184082 
	C37.441181,165.184082 53.397755,165.137756 69.352760,165.274551 
	C70.590500,165.285156 71.914886,166.451401 73.033455,167.298996 
	C81.280975,173.548691 81.005325,181.713837 78.073502,190.840851 
M35.992798,207.240646 
	C34.819336,207.873032 32.806091,208.312851 32.609707,209.169281 
	C31.401155,214.439789 30.602810,219.804367 29.561985,225.742523 
	C37.187298,225.742523 44.157612,226.164688 51.020100,225.490021 
	C53.128937,225.282700 55.367519,222.344437 56.754368,220.154861 
	C57.820221,218.472076 57.726147,216.012955 58.002186,213.880203 
	C58.579243,209.421692 56.832001,207.341217 52.328701,207.260727 
	C47.188461,207.168854 42.045330,207.238419 35.992798,207.240646 
M55.150661,179.692154 
	C53.659695,179.691772 52.168724,179.691055 50.677757,179.691025 
	C37.349411,179.690735 37.346897,179.690414 35.485065,192.945770 
	C35.449516,193.198868 35.696232,193.491623 35.984856,194.179810 
	C41.910316,194.179810 48.027767,194.444168 54.110828,194.100235 
	C59.443954,193.798706 60.396774,189.441345 60.843456,185.207230 
	C61.194355,181.881073 59.551117,179.894760 55.150661,179.692154 
z"/>
<path fill="#FBDC5D" opacity="1.000000" stroke="none" 
	d="
M450.459656,266.837769 
	C443.897644,266.770233 437.782196,266.770233 431.154846,266.770233 
	C432.132294,261.260956 432.992706,256.411377 433.882568,251.395889 
	C454.162231,251.395889 474.076385,251.395889 494.696808,251.395889 
	C493.787628,256.570099 492.919373,261.511200 492.002869,266.726959 
	C484.902954,266.726959 478.280487,266.726959 471.186188,266.726959 
	C467.699646,286.415344 464.260254,305.837555 460.757416,325.618103 
	C454.532562,325.618103 448.319305,325.618103 441.673706,325.618103 
	C443.967743,312.502014 446.225220,299.582794 448.487701,286.664490 
	C449.491425,280.933563 450.545258,275.210815 451.468689,269.467041 
	C451.597778,268.664032 451.108948,267.761658 450.459656,266.837769 
z"/>
<path fill="#FDDC5B" opacity="1.000000" stroke="none" 
	d="
M341.800781,302.696564 
	C341.690460,303.283081 341.612488,303.446960 341.619843,303.606873 
	C342.102173,314.087982 334.758240,319.451141 327.581543,324.836975 
	C326.515289,325.637085 324.839813,325.928406 323.442841,325.937408 
	C310.791779,326.018982 298.138214,326.087799 285.490326,325.871674 
	C283.655853,325.840332 281.548035,324.630859 280.079712,323.369385 
	C274.205475,318.322754 272.474518,312.463165 274.541168,304.456207 
	C277.481750,293.063232 279.132050,281.301056 280.728760,269.613953 
	C281.438599,264.418365 283.771149,261.065338 287.523346,257.620392 
	C292.742554,252.828568 298.082611,250.541260 305.322266,251.007126 
	C315.269165,251.647202 325.294159,250.982559 335.271667,251.307770 
	C337.538849,251.381668 340.077759,252.819046 341.923431,254.325119 
	C347.697876,259.037109 349.174011,264.778870 347.219696,272.340393 
	C344.690857,282.124695 343.589111,292.277771 341.800781,302.696564 
M312.212585,311.721771 
	C316.884613,312.030151 321.037415,311.184509 322.064148,305.772949 
	C324.197357,294.529846 326.114075,283.245453 328.091766,271.973145 
	C328.834320,267.740662 326.866394,265.697998 322.702881,265.656738 
	C317.886749,265.608978 313.069641,265.621643 308.253174,265.648438 
	C302.633575,265.679657 300.368713,267.425049 299.386841,272.821899 
	C297.427307,283.592255 295.558899,294.379578 293.723541,305.171906 
	C292.990417,309.483032 294.839813,311.611816 299.324982,311.702423 
	C303.309540,311.782928 307.296967,311.720795 312.212585,311.721771 
z"/>
<path fill="#FD3234" opacity="1.000000" stroke="none" 
	d="
M92.795624,209.682068 
	C96.040352,208.342987 98.949852,206.601700 102.000946,206.302048 
	C107.283058,205.783234 112.653511,206.203339 117.985680,206.134460 
	C119.983818,206.108658 123.216209,206.866638 122.529266,203.533401 
	C122.163895,201.760483 119.450264,199.321625 117.655319,199.195618 
	C110.524071,198.694916 103.337135,198.990921 96.170853,198.979797 
	C95.348145,198.978531 94.525558,198.902145 93.195572,198.834946 
	C93.882607,194.949219 94.532410,191.274063 95.276321,187.066666 
	C107.593201,187.066666 119.883804,187.066666 132.174408,187.066666 
	C135.579803,191.444916 138.985214,195.823181 142.390610,200.201431 
	C140.113480,213.291458 137.836365,226.381500 135.519882,239.697784 
	C129.143234,239.697784 123.050117,239.697784 116.821777,239.697784 
	C116.821777,237.861816 116.821777,236.119904 116.821777,232.618805 
	C110.658699,242.357635 102.042496,239.858582 94.165779,239.854156 
	C92.356636,239.853134 90.164505,238.626755 88.809319,237.292984 
	C84.116676,232.674545 79.477989,227.427795 83.231018,220.434021 
	C85.382607,216.424545 89.365616,213.397827 92.795624,209.682068 
M119.647186,215.949448 
	C115.855782,215.861923 112.055382,215.572006 108.275345,215.740112 
	C103.931908,215.933243 100.402122,220.668121 101.258514,225.365204 
	C101.935959,229.080719 104.747856,230.343124 108.339386,229.732346 
	C112.489258,229.026611 119.808640,220.843277 119.647186,215.949448 
z"/>
<path fill="#526EED" opacity="1.000000" stroke="none" 
	d="
M232.187988,265.715698 
	C237.145645,265.716858 241.625946,265.671997 246.104752,265.733582 
	C250.017303,265.787354 251.890244,267.689728 251.224991,271.723236 
	C250.739609,274.666229 250.865295,277.893250 249.631592,280.474030 
	C248.562485,282.710480 246.107895,285.573547 244.016907,285.793335 
	C237.486786,286.479858 230.838806,286.045288 223.858276,286.045288 
	C224.983185,279.658508 225.808624,273.756866 227.228882,268.002014 
	C227.491913,266.936279 230.154755,266.462799 232.187988,265.715698 
M228.761658,271.233215 
	C228.053436,275.362671 227.345215,279.492096 226.576279,283.975525 
	C231.817657,283.975525 236.309616,284.263123 240.737244,283.854218 
	C242.951172,283.649780 246.419067,282.649658 246.929214,281.179749 
	C248.237152,277.411224 248.283279,273.183868 248.574875,269.121338 
	C248.599548,268.777649 246.696991,267.962677 245.673813,267.933838 
	C241.033615,267.803101 236.380020,267.735565 231.749969,267.988007 
	C230.763397,268.041779 229.854828,269.526215 228.761658,271.233215 
z"/>
<path fill="#5D5CC9" opacity="1.000000" stroke="none" 
	d="
M36.448128,207.239243 
	C42.045330,207.238419 47.188461,207.168854 52.328701,207.260727 
	C56.832001,207.341217 58.579243,209.421692 58.002186,213.880203 
	C57.726147,216.012955 57.820221,218.472076 56.754368,220.154861 
	C55.367519,222.344437 53.128937,225.282700 51.020100,225.490021 
	C44.157612,226.164688 37.187298,225.742523 29.561985,225.742523 
	C30.602810,219.804367 31.401155,214.439789 32.609707,209.169281 
	C32.806091,208.312851 34.819336,207.873032 36.448128,207.239243 
M50.897579,223.184570 
	C55.609745,221.807343 54.539707,217.430557 55.546711,214.153015 
	C56.442013,211.239029 55.320454,209.690811 52.217506,209.691757 
	C47.253384,209.693268 42.281940,209.554276 37.330967,209.810425 
	C36.267967,209.865417 34.624706,211.190399 34.375092,212.206924 
	C33.530148,215.647842 33.190983,219.212967 32.573837,223.290085 
	C38.813698,223.290085 44.405876,223.290085 50.897579,223.184570 
z"/>
<path fill="#566AED" opacity="1.000000" stroke="none" 
	d="
M55.608849,179.695007 
	C59.551117,179.894760 61.194355,181.881073 60.843456,185.207230 
	C60.396774,189.441345 59.443954,193.798706 54.110828,194.100235 
	C48.027767,194.444168 41.910316,194.179810 35.984856,194.179810 
	C35.696232,193.491623 35.449516,193.198868 35.485065,192.945770 
	C37.346897,179.690414 37.349411,179.690735 50.677757,179.691025 
	C52.168724,179.691055 53.659695,179.691772 55.608849,179.695007 
M56.714569,181.982544 
	C52.087074,181.945511 47.452366,181.754959 42.836792,181.971725 
	C41.571014,182.031174 39.637489,183.053986 39.274010,184.081665 
	C38.437721,186.446136 38.377934,189.085251 37.949493,191.973892 
	C42.922241,191.973892 47.369339,192.025864 51.814735,191.960983 
	C57.617069,191.876297 59.922684,187.906464 56.714569,181.982544 
z"/>
<path fill="#576FDD" opacity="1.000000" stroke="none" 
	d="
M311.747864,311.721680 
	C307.296967,311.720795 303.309540,311.782928 299.324982,311.702423 
	C294.839813,311.611816 292.990417,309.483032 293.723541,305.171906 
	C295.558899,294.379578 297.427307,283.592255 299.386841,272.821899 
	C300.368713,267.425049 302.633575,265.679657 308.253174,265.648438 
	C313.069641,265.621643 317.886749,265.608978 322.702881,265.656738 
	C326.866394,265.697998 328.834320,267.740662 328.091766,271.973145 
	C326.114075,283.245453 324.197357,294.529846 322.064148,305.772949 
	C321.037415,311.184509 316.884613,312.030151 311.747864,311.721680 
M323.052612,287.470612 
	C323.984253,282.408356 324.914459,277.345856 325.847992,272.283966 
	C326.379242,269.403595 325.447205,267.824615 322.255554,267.876282 
	C317.102631,267.959686 311.912994,267.566284 306.812073,268.088776 
	C305.065399,268.267731 302.429108,270.358856 302.089996,271.973480 
	C299.770721,283.016602 297.962006,294.166687 295.971313,305.279205 
	C295.479950,308.021973 296.523743,309.398987 299.367432,309.386108 
	C304.521545,309.362793 309.732452,309.816406 314.801086,309.157928 
	C316.718842,308.908783 319.284515,306.417969 319.858612,304.453308 
	C321.386688,299.223572 321.992401,293.724396 323.052612,287.470612 
z"/>
<path fill="#5667E6" opacity="1.000000" stroke="none" 
	d="
M119.913567,216.277863 
	C119.808640,220.843277 112.489258,229.026611 108.339386,229.732346 
	C104.747856,230.343124 101.935959,229.080719 101.258514,225.365204 
	C100.402122,220.668121 103.931908,215.933243 108.275345,215.740112 
	C112.055382,215.572006 115.855782,215.861923 119.913567,216.277863 
M105.469292,227.275986 
	C109.982071,227.119125 115.935699,222.658722 117.656303,217.869308 
	C115.065224,217.869308 112.605026,217.820419 110.147408,217.879211 
	C104.557610,218.012955 102.670700,221.150665 105.469292,227.275986 
z"/>
<path fill="#010102" opacity="1.000000" stroke="none" 
	d="
M228.835999,270.792358 
	C229.854828,269.526215 230.763397,268.041779 231.749969,267.988007 
	C236.380020,267.735565 241.033615,267.803101 245.673813,267.933838 
	C246.696991,267.962677 248.599548,268.777649 248.574875,269.121338 
	C248.283279,273.183868 248.237152,277.411224 246.929214,281.179749 
	C246.419067,282.649658 242.951172,283.649780 240.737244,283.854218 
	C236.309616,284.263123 231.817657,283.975525 226.576279,283.975525 
	C227.345215,279.492096 228.053436,275.362671 228.835999,270.792358 
z"/>
<path fill="#010102" opacity="1.000000" stroke="none" 
	d="
M50.447815,223.237335 
	C44.405876,223.290085 38.813698,223.290085 32.573837,223.290085 
	C33.190983,219.212967 33.530148,215.647842 34.375092,212.206924 
	C34.624706,211.190399 36.267967,209.865417 37.330967,209.810425 
	C42.281940,209.554276 47.253384,209.693268 52.217506,209.691757 
	C55.320454,209.690811 56.442013,211.239029 55.546711,214.153015 
	C54.539707,217.430557 55.609745,221.807343 50.447815,223.237335 
z"/>
<path fill="#010102" opacity="1.000000" stroke="none" 
	d="
M57.112587,182.125153 
	C59.922684,187.906464 57.617069,191.876297 51.814735,191.960983 
	C47.369339,192.025864 42.922241,191.973892 37.949493,191.973892 
	C38.377934,189.085251 38.437721,186.446136 39.274010,184.081665 
	C39.637489,183.053986 41.571014,182.031174 42.836792,181.971725 
	C47.452366,181.754959 52.087074,181.945511 57.112587,182.125153 
z"/>
<path fill="#010102" opacity="1.000000" stroke="none" 
	d="
M323.008728,287.901489 
	C321.992401,293.724396 321.386688,299.223572 319.858612,304.453308 
	C319.284515,306.417969 316.718842,308.908783 314.801086,309.157928 
	C309.732452,309.816406 304.521545,309.362793 299.367432,309.386108 
	C296.523743,309.398987 295.479950,308.021973 295.971313,305.279205 
	C297.962006,294.166687 299.770721,283.016602 302.089996,271.973480 
	C302.429108,270.358856 305.065399,268.267731 306.812073,268.088776 
	C311.912994,267.566284 317.102631,267.959686 322.255554,267.876282 
	C325.447205,267.824615 326.379242,269.403595 325.847992,272.283966 
	C324.914459,277.345856 323.984253,282.408356 323.008728,287.901489 
z"/>
<path fill="#030409" opacity="1.000000" stroke="none" 
	d="
M105.091003,227.058884 
	C102.670700,221.150665 104.557610,218.012955 110.147408,217.879211 
	C112.605026,217.820419 115.065224,217.869308 117.656303,217.869308 
	C115.935699,222.658722 109.982071,227.119125 105.091003,227.058884 
z"/>
</svg>